<svg version="1.1" xmlns="http://www.w3.org/2000/svg" xmlns:xlink="http://www.w3.org/1999/xlink" width="1425" height="1221" viewBox="0 0 1425 1221"><defs/><g transform="matrix(1,0,0,1,0,0)"><g><g><g><path fill="none" stroke="#d3d3d3" paint-order="fill stroke markers" d=" M 0 0 L 1200 0" stroke-miterlimit="10" stroke-opacity="0.8" stroke-dasharray="5"/></g><g><path fill="none" stroke="#d3d3d3" paint-order="fill stroke markers" d=" M 0 0 L 0 800" stroke-miterlimit="10" stroke-opacity="0.8" stroke-dasharray="5"/></g></g><g id="_B8B21C66-733E-4CD0-8982-92DFAF357156" transform="matrix(1,0,0,1,1033.25,50)"><g transform="matrix(1,0,0,1,23,0)"><path fill="#ffffff" stroke="#d5d5d5" id="_B8B21C66-733E-4CD0-8982-92DFAF357156?shapeType=BORDER" paint-order="fill stroke markers" d=" M 0 0 L 0 0 L 1.5308084989341915e-15 0 A 25 25 0 0 1 25 25 L 25 25 L 25 25 A 25 25 0 0 1 1.5308084989341915e-15 50 L 0 50 L 1.5308084989341915e-15 50 A 25 25 0 0 1 -25 25.000000000000004 L -25 25 L -25 25.000000000000004 A 25 25 0 0 1 1.5308084989341915e-15 0 Z" stroke-miterlimit="10" stroke-width="2" stroke-dasharray=""/></g><g><g id="_B8B21C66-733E-4CD0-8982-92DFAF357156" transform="matrix(1,0,0,1,23,25)"><text fill="#929292" stroke="none" font-family="Open Sans" font-size="12pt" font-style="normal" font-weight="normal" text-decoration="normal" x="0" y="0" text-anchor="middle" dominant-baseline="central">Start</text></g></g></g><g id="_FF19F0C6-BD1D-47D5-85BE-6DCA986FD968" transform="matrix(1,0,0,1,416,1125)"><g transform="matrix(1,0,0,1,0,0)"><path fill="#ffffff" stroke="#d5d5d5" id="_FF19F0C6-BD1D-47D5-85BE-6DCA986FD968?shapeType=BORDER" paint-order="fill stroke markers" d=" M 0 0 L 46 0 L 46 46 L 0 46 Z" stroke-miterlimit="10" stroke-width="2" stroke-dasharray=""/></g><g><g id="_FF19F0C6-BD1D-47D5-85BE-6DCA986FD968" transform="matrix(1,0,0,1,23,23)"><text fill="#929292" stroke="none" font-family="Open Sans" font-size="12pt" font-style="normal" font-weight="normal" text-decoration="normal" x="0" y="0" text-anchor="middle" dominant-baseline="central">End</text></g></g></g><g id="_9B8233DF-604C-4AB4-93E5-5F84D7BA4A74" transform="matrix(1,0,0,1,931.25,185)"><g transform="matrix(1,0,0,1,0,0)"><path fill="none" stroke="none"/></g><g transform="matrix(1,0,0,1,0,0)"><path fill="#fff" stroke="#d5d5d5" id="_9B8233DF-604C-4AB4-93E5-5F84D7BA4A74_77C83BB2-9B2F-408D-BBDA-507D21C91B27" paint-order="fill stroke markers" d=" M 5 0 L 245 0 L 245 0 A 5 5 0 0 1 250 5 L 250 85 L 250 85 A 5 5 0 0 1 245 90 L 5 90 L 5 90 A 5 5 0 0 1 0 85 L 0 5 L 0 5.000000000000001 A 5 5 0 0 1 4.999999999999999 0 Z" stroke-miterlimit="10" stroke-width="2" stroke-dasharray=""/></g><g transform="matrix(1,0,0,1,90,35)"><text fill="#383B3D" stroke="none" font-family="Open Sans" font-size="12pt" font-style="normal" font-weight="normal" text-decoration="normal" x="47.71484375" y="12" text-anchor="middle" dominant-baseline="central">reserveStock</text></g><g><g id="_9B8233DF-604C-4AB4-93E5-5F84D7BA4A74" transform="matrix(1,0,0,1,45,46)"><path fill="#0066CC" stroke="#d5d5d5" id="_9B8233DF-604C-4AB4-93E5-5F84D7BA4A74" paint-order="fill stroke markers" d=" M 25 0 A 25 25 0 1 0 24.99998750000104 0.02499999583334189 Z" stroke-miterlimit="10" stroke-dasharray=""/></g><g transform="matrix(0.35,0,0,0.35,33.8,34.45)"><g id="_9B8233DF-604C-4AB4-93E5-5F84D7BA4A74" transform="matrix(1,0,0,1,0,0)"><path fill="#ffffff" stroke="#ffffff" id="_9B8233DF-604C-4AB4-93E5-5F84D7BA4A74" paint-order="fill stroke markers" d=" M 0 0 M 61.99 20.83 C 62.4 21.9 62.050000000000004 23.119999999999997 61.2 23.9 L 55.790000000000006 28.83 C 55.93000000000001 29.869999999999997 56.00000000000001 30.93 56.00000000000001 32 C 56.00000000000001 33.07 55.92000000000001 34.14 55.790000000000006 35.17 L 61.2 40.09 C 62.050000000000004 40.88 62.400000000000006 42.09 61.99 43.17 C 61.440000000000005 44.660000000000004 60.78 46.09 60.03 47.46 L 59.44 48.47 C 58.61 49.85 57.69 51.15 56.68 52.379999999999995 C 55.93 53.269999999999996 54.72 53.58 53.62 53.23 L 46.66 51.01 C 44.98 52.3 43.019999999999996 53.37 41.16 54.199999999999996 L 39.599999999999994 61.339999999999996 C 39.349999999999994 62.459999999999994 38.48 63.26 37.31999999999999 63.559999999999995 C 35.599999999999994 63.849999999999994 33.81999999999999 63.99999999999999 31.89999999999999 63.99999999999999 C 30.199999999999992 63.99999999999999 28.41999999999999 63.849999999999994 26.699999999999992 63.559999999999995 C 25.549999999999994 63.26 24.679999999999993 62.459999999999994 24.429999999999993 61.339999999999996 L 22.869999999999994 54.199999999999996 C 20.889999999999993 53.37 19.039999999999992 52.3 17.369999999999994 51.01 L 10.409999999999993 53.23 C 9.309999999999993 53.58 8.089999999999993 53.269999999999996 7.3499999999999925 52.379999999999995 C 6.339999999999993 51.13999999999999 5.409999999999993 49.839999999999996 4.589999999999993 48.47 L 3.999999999999993 47.46 C 3.239999999999993 46.1 2.579999999999993 44.660000000000004 2.029999999999993 43.17 C 1.6299999999999932 42.09 1.969999999999993 40.88 2.819999999999993 40.09 L 8.229999999999993 35.17 C 8.089999999999993 34.13 8.019999999999992 33.07 8.019999999999992 32 C 8.019999999999992 30.93 8.089999999999993 29.86 8.229999999999993 28.83 L 2.819999999999993 23.9 C 1.9599999999999933 23.11 1.6199999999999932 21.91 2.029999999999993 20.83 C 2.579999999999993 19.34 3.249999999999993 17.9 3.999999999999993 16.54 L 4.579999999999993 15.53 C 5.409999999999993 14.149999999999999 6.329999999999993 12.86 7.3499999999999925 11.62 C 8.089999999999993 10.729999999999999 9.309999999999992 10.42 10.409999999999993 10.77 L 17.369999999999994 12.99 C 19.039999999999992 11.7 20.889999999999993 10.620000000000001 22.869999999999994 9.81 L 24.429999999999993 2.670000000000001 C 24.679999999999993 1.540000000000001 25.549999999999994 0.6300000000000008 26.699999999999992 0.44000000000000083 C 28.429999999999993 0.15000000000000085 30.199999999999992 8.326672684688674e-16 32.00999999999999 8.326672684688674e-16 C 33.81999999999999 8.326672684688674e-16 35.599999999999994 0.15000000000000083 37.31999999999999 0.44000000000000083 C 38.46999999999999 0.6300000000000008 39.349999999999994 1.530000000000001 39.599999999999994 2.670000000000001 L 41.16 9.81 C 43.019999999999996 10.63 44.98 11.700000000000001 46.66 12.99 L 53.62 10.77 C 54.72 10.42 55.93 10.73 56.68 11.62 C 57.69 12.85 58.62 14.149999999999999 59.44 15.53 L 60.03 16.54 C 60.78 17.9 61.44 19.34 61.99 20.83 L 61.99 20.83 Z M 0 0 M 32 42 C 37.53 42 42 37.53 42 31.89 C 42 26.25 37.53 21.89 32 21.89 C 26.47 21.89 22 26.48 22 31.89 C 22 37.3 26.48 42 32 42 Z" stroke-miterlimit="10" stroke-width="2" stroke-dasharray=""/></g></g></g></g><g id="_63127648-EBE3-4F54-92F8-C82EC2B92559" transform="matrix(1,0,0,1,606.25,362)"><g transform="matrix(1,0,0,1,0,0)"><path fill="none" stroke="none"/></g><g transform="matrix(1,0,0,1,0,0)"><path fill="#fff" stroke="#d5d5d5" id="_63127648-EBE3-4F54-92F8-C82EC2B92559_E50D2BE5-79FF-468A-902B-AA5796FC2C64" paint-order="fill stroke markers" d=" M 5 0 L 245 0 L 245 0 A 5 5 0 0 1 250 5 L 250 85 L 250 85 A 5 5 0 0 1 245 90 L 5 90 L 5 90 A 5 5 0 0 1 0 85 L 0 5 L 0 5.000000000000001 A 5 5 0 0 1 4.999999999999999 0 Z" stroke-miterlimit="10" stroke-width="2" stroke-dasharray=""/></g><g transform="matrix(1,0,0,1,90,35)"><text fill="#383B3D" stroke="none" font-family="Open Sans" font-size="12pt" font-style="normal" font-weight="normal" text-decoration="normal" x="61.73046875" y="12" text-anchor="middle" dominant-baseline="central">processPayment</text></g><g><g id="_63127648-EBE3-4F54-92F8-C82EC2B92559" transform="matrix(1,0,0,1,45,46)"><path fill="#0066CC" stroke="#d5d5d5" id="_63127648-EBE3-4F54-92F8-C82EC2B92559" paint-order="fill stroke markers" d=" M 25 0 A 25 25 0 1 0 24.99998750000104 0.02499999583334189 Z" stroke-miterlimit="10" stroke-dasharray=""/></g><g transform="matrix(0.35,0,0,0.35,33.8,34.45)"><g id="_63127648-EBE3-4F54-92F8-C82EC2B92559" transform="matrix(1,0,0,1,0,0)"><path fill="#ffffff" stroke="#ffffff" id="_63127648-EBE3-4F54-92F8-C82EC2B92559" paint-order="fill stroke markers" d=" M 0 0 M 61.99 20.83 C 62.4 21.9 62.050000000000004 23.119999999999997 61.2 23.9 L 55.790000000000006 28.83 C 55.93000000000001 29.869999999999997 56.00000000000001 30.93 56.00000000000001 32 C 56.00000000000001 33.07 55.92000000000001 34.14 55.790000000000006 35.17 L 61.2 40.09 C 62.050000000000004 40.88 62.400000000000006 42.09 61.99 43.17 C 61.440000000000005 44.660000000000004 60.78 46.09 60.03 47.46 L 59.44 48.47 C 58.61 49.85 57.69 51.15 56.68 52.379999999999995 C 55.93 53.269999999999996 54.72 53.58 53.62 53.23 L 46.66 51.01 C 44.98 52.3 43.019999999999996 53.37 41.16 54.199999999999996 L 39.599999999999994 61.339999999999996 C 39.349999999999994 62.459999999999994 38.48 63.26 37.31999999999999 63.559999999999995 C 35.599999999999994 63.849999999999994 33.81999999999999 63.99999999999999 31.89999999999999 63.99999999999999 C 30.199999999999992 63.99999999999999 28.41999999999999 63.849999999999994 26.699999999999992 63.559999999999995 C 25.549999999999994 63.26 24.679999999999993 62.459999999999994 24.429999999999993 61.339999999999996 L 22.869999999999994 54.199999999999996 C 20.889999999999993 53.37 19.039999999999992 52.3 17.369999999999994 51.01 L 10.409999999999993 53.23 C 9.309999999999993 53.58 8.089999999999993 53.269999999999996 7.3499999999999925 52.379999999999995 C 6.339999999999993 51.13999999999999 5.409999999999993 49.839999999999996 4.589999999999993 48.47 L 3.999999999999993 47.46 C 3.239999999999993 46.1 2.579999999999993 44.660000000000004 2.029999999999993 43.17 C 1.6299999999999932 42.09 1.969999999999993 40.88 2.819999999999993 40.09 L 8.229999999999993 35.17 C 8.089999999999993 34.13 8.019999999999992 33.07 8.019999999999992 32 C 8.019999999999992 30.93 8.089999999999993 29.86 8.229999999999993 28.83 L 2.819999999999993 23.9 C 1.9599999999999933 23.11 1.6199999999999932 21.91 2.029999999999993 20.83 C 2.579999999999993 19.34 3.249999999999993 17.9 3.999999999999993 16.54 L 4.579999999999993 15.53 C 5.409999999999993 14.149999999999999 6.329999999999993 12.86 7.3499999999999925 11.62 C 8.089999999999993 10.729999999999999 9.309999999999992 10.42 10.409999999999993 10.77 L 17.369999999999994 12.99 C 19.039999999999992 11.7 20.889999999999993 10.620000000000001 22.869999999999994 9.81 L 24.429999999999993 2.670000000000001 C 24.679999999999993 1.540000000000001 25.549999999999994 0.6300000000000008 26.699999999999992 0.44000000000000083 C 28.429999999999993 0.15000000000000085 30.199999999999992 8.326672684688674e-16 32.00999999999999 8.326672684688674e-16 C 33.81999999999999 8.326672684688674e-16 35.599999999999994 0.15000000000000083 37.31999999999999 0.44000000000000083 C 38.46999999999999 0.6300000000000008 39.349999999999994 1.530000000000001 39.599999999999994 2.670000000000001 L 41.16 9.81 C 43.019999999999996 10.63 44.98 11.700000000000001 46.66 12.99 L 53.62 10.77 C 54.72 10.42 55.93 10.73 56.68 11.62 C 57.69 12.85 58.62 14.149999999999999 59.44 15.53 L 60.03 16.54 C 60.78 17.9 61.44 19.34 61.99 20.83 L 61.99 20.83 Z M 0 0 M 32 42 C 37.53 42 42 37.53 42 31.89 C 42 26.25 37.53 21.89 32 21.89 C 26.47 21.89 22 26.48 22 31.89 C 22 37.3 26.48 42 32 42 Z" stroke-miterlimit="10" stroke-width="2" stroke-dasharray=""/></g></g></g></g><g id="_E397DA30-8056-4447-A913-E40509476A23" transform="matrix(1,0,0,1,313.5,539)"><g transform="matrix(1,0,0,1,0,0)"><path fill="none" stroke="none"/></g><g transform="matrix(1,0,0,1,0,0)"><path fill="#fff" stroke="#d5d5d5" id="_E397DA30-8056-4447-A913-E40509476A23_F58742F6-8B77-44E4-9C5B-7F0E7F3B02AB" paint-order="fill stroke markers" d=" M 5 0 L 245 0 L 245 0 A 5 5 0 0 1 250 5 L 250 85 L 250 85 A 5 5 0 0 1 245 90 L 5 90 L 5 90 A 5 5 0 0 1 0 85 L 0 5 L 0 5.000000000000001 A 5 5 0 0 1 4.999999999999999 0 Z" stroke-miterlimit="10" stroke-width="2" stroke-dasharray=""/></g><g transform="matrix(1,0,0,1,90,35)"><text fill="#383B3D" stroke="none" font-family="Open Sans" font-size="12pt" font-style="normal" font-weight="normal" text-decoration="normal" x="65.79296875" y="12" text-anchor="middle" dominant-baseline="central">scheduleShipping</text></g><g><g id="_E397DA30-8056-4447-A913-E40509476A23" transform="matrix(1,0,0,1,45,46)"><path fill="#0066CC" stroke="#d5d5d5" id="_E397DA30-8056-4447-A913-E40509476A23" paint-order="fill stroke markers" d=" M 25 0 A 25 25 0 1 0 24.99998750000104 0.02499999583334189 Z" stroke-miterlimit="10" stroke-dasharray=""/></g><g transform="matrix(0.35,0,0,0.35,33.8,34.45)"><g id="_E397DA30-8056-4447-A913-E40509476A23" transform="matrix(1,0,0,1,0,0)"><path fill="#ffffff" stroke="#ffffff" id="_E397DA30-8056-4447-A913-E40509476A23" paint-order="fill stroke markers" d=" M 0 0 M 61.99 20.83 C 62.4 21.9 62.050000000000004 23.119999999999997 61.2 23.9 L 55.790000000000006 28.83 C 55.93000000000001 29.869999999999997 56.00000000000001 30.93 56.00000000000001 32 C 56.00000000000001 33.07 55.92000000000001 34.14 55.790000000000006 35.17 L 61.2 40.09 C 62.050000000000004 40.88 62.400000000000006 42.09 61.99 43.17 C 61.440000000000005 44.660000000000004 60.78 46.09 60.03 47.46 L 59.44 48.47 C 58.61 49.85 57.69 51.15 56.68 52.379999999999995 C 55.93 53.269999999999996 54.72 53.58 53.62 53.23 L 46.66 51.01 C 44.98 52.3 43.019999999999996 53.37 41.16 54.199999999999996 L 39.599999999999994 61.339999999999996 C 39.349999999999994 62.459999999999994 38.48 63.26 37.31999999999999 63.559999999999995 C 35.599999999999994 63.849999999999994 33.81999999999999 63.99999999999999 31.89999999999999 63.99999999999999 C 30.199999999999992 63.99999999999999 28.41999999999999 63.849999999999994 26.699999999999992 63.559999999999995 C 25.549999999999994 63.26 24.679999999999993 62.459999999999994 24.429999999999993 61.339999999999996 L 22.869999999999994 54.199999999999996 C 20.889999999999993 53.37 19.039999999999992 52.3 17.369999999999994 51.01 L 10.409999999999993 53.23 C 9.309999999999993 53.58 8.089999999999993 53.269999999999996 7.3499999999999925 52.379999999999995 C 6.339999999999993 51.13999999999999 5.409999999999993 49.839999999999996 4.589999999999993 48.47 L 3.999999999999993 47.46 C 3.239999999999993 46.1 2.579999999999993 44.660000000000004 2.029999999999993 43.17 C 1.6299999999999932 42.09 1.969999999999993 40.88 2.819999999999993 40.09 L 8.229999999999993 35.17 C 8.089999999999993 34.13 8.019999999999992 33.07 8.019999999999992 32 C 8.019999999999992 30.93 8.089999999999993 29.86 8.229999999999993 28.83 L 2.819999999999993 23.9 C 1.9599999999999933 23.11 1.6199999999999932 21.91 2.029999999999993 20.83 C 2.579999999999993 19.34 3.249999999999993 17.9 3.999999999999993 16.54 L 4.579999999999993 15.53 C 5.409999999999993 14.149999999999999 6.329999999999993 12.86 7.3499999999999925 11.62 C 8.089999999999993 10.729999999999999 9.309999999999992 10.42 10.409999999999993 10.77 L 17.369999999999994 12.99 C 19.039999999999992 11.7 20.889999999999993 10.620000000000001 22.869999999999994 9.81 L 24.429999999999993 2.670000000000001 C 24.679999999999993 1.540000000000001 25.549999999999994 0.6300000000000008 26.699999999999992 0.44000000000000083 C 28.429999999999993 0.15000000000000085 30.199999999999992 8.326672684688674e-16 32.00999999999999 8.326672684688674e-16 C 33.81999999999999 8.326672684688674e-16 35.599999999999994 0.15000000000000083 37.31999999999999 0.44000000000000083 C 38.46999999999999 0.6300000000000008 39.349999999999994 1.530000000000001 39.599999999999994 2.670000000000001 L 41.16 9.81 C 43.019999999999996 10.63 44.98 11.700000000000001 46.66 12.99 L 53.62 10.77 C 54.72 10.42 55.93 10.73 56.68 11.62 C 57.69 12.85 58.62 14.149999999999999 59.44 15.53 L 60.03 16.54 C 60.78 17.9 61.44 19.34 61.99 20.83 L 61.99 20.83 Z M 0 0 M 32 42 C 37.53 42 42 37.53 42 31.89 C 42 26.25 37.53 21.89 32 21.89 C 26.47 21.89 22 26.48 22 31.89 C 22 37.3 26.48 42 32 42 Z" stroke-miterlimit="10" stroke-width="2" stroke-dasharray=""/></g></g></g></g><g id="_5D28A803-A06A-41AC-B867-F08AF365A344" transform="matrix(1,0,0,1,718,771)"><g transform="matrix(1,0,0,1,0,0)"><path fill="none" stroke="none"/></g><g transform="matrix(1,0,0,1,0,0)"><path fill="#fff" stroke="#d5d5d5" id="_5D28A803-A06A-41AC-B867-F08AF365A344_21B26643-6E6F-4BB7-9741-29F4F9EC80EF" paint-order="fill stroke markers" d=" M 5 0 L 245 0 L 245 0 A 5 5 0 0 1 250 5 L 250 85 L 250 85 A 5 5 0 0 1 245 90 L 5 90 L 5 90 A 5 5 0 0 1 0 85 L 0 5 L 0 5.000000000000001 A 5 5 0 0 1 4.999999999999999 0 Z" stroke-miterlimit="10" stroke-width="2" stroke-dasharray=""/></g><g transform="matrix(1,0,0,1,90,35)"><text fill="#383B3D" stroke="none" font-family="Open Sans" font-size="12pt" font-style="normal" font-weight="normal" text-decoration="normal" x="45.390625" y="12" text-anchor="middle" dominant-baseline="central">ServiceError</text></g><g><g id="_5D28A803-A06A-41AC-B867-F08AF365A344" transform="matrix(1,0,0,1,45,46)"><path fill="#8BC1F7" stroke="#d5d5d5" id="_5D28A803-A06A-41AC-B867-F08AF365A344" paint-order="fill stroke markers" d=" M 25 0 A 25 25 0 1 0 24.99998750000104 0.02499999583334189 Z" stroke-miterlimit="10" stroke-dasharray=""/></g><g transform="matrix(0.35,0,0,0.35,33.8,34.45)"><g id="_5D28A803-A06A-41AC-B867-F08AF365A344" transform="matrix(1,0,0,1,0,0)"><path fill="#ffffff" stroke="#ffffff" id="_5D28A803-A06A-41AC-B867-F08AF365A344" paint-order="fill stroke markers" d=" M 0 0 M 35.02 28.49 C 35.02 28.49 34.99 28.459999999999997 34.970000000000006 28.45 L 24.680000000000007 18.16 C 22.900000000000006 16.38 20.000000000000007 16.37 18.220000000000006 18.16 C 16.430000000000007 19.95 16.440000000000005 22.84 18.220000000000006 24.62 L 21.030000000000005 27.43 L 4.57 27.43 C 2.0500000000000003 27.43 0 29.47 0 32 C 0 34.53 2.05 36.57 4.57 36.57 L 20.94 36.57 L 18.19 39.32 C 16.41 41.1 16.400000000000002 44 18.19 45.78 C 19.98 47.56 22.87 47.56 24.650000000000002 45.78 L 34.74 35.69 C 35.02 35.489999999999995 35.28 35.25 35.510000000000005 34.98 C 36.010000000000005 34.4 36.330000000000005 33.709999999999994 36.480000000000004 32.98 C 36.85 31.389999999999997 36.370000000000005 29.65 35.02 28.479999999999997 Z" stroke-miterlimit="10" stroke-width="2" stroke-dasharray=""/></g><g id="_5D28A803-A06A-41AC-B867-F08AF365A344" transform="matrix(1,0,0,1,0,0)"><path fill="#ffffff" stroke="#ffffff" id="_5D28A803-A06A-41AC-B867-F08AF365A344" paint-order="fill stroke markers" d=" M 0 0 M 0.01 4.23 C 0.19 1.83 2.25 0 4.66 0 L 59.43 0 C 61.96 0 64 2.05 64 4.57 C 64 7.090000000000001 61.96 9.14 59.43 9.14 L 4.57 9.14 C 1.93 9.14 -0.18 6.91 0.01 4.23 Z" stroke-miterlimit="10" stroke-width="2" stroke-dasharray=""/></g><g id="_5D28A803-A06A-41AC-B867-F08AF365A344" transform="matrix(1,0,0,1,0,0)"><path fill="#ffffff" stroke="#ffffff" id="_5D28A803-A06A-41AC-B867-F08AF365A344" paint-order="fill stroke markers" d=" M 0 0 M 46.09 18.29 L 59.330000000000005 18.29 C 61.67 18.29 63.82000000000001 20.2 63.980000000000004 22.53 C 64.17 25.21 62.06 27.43 59.42 27.43 L 45.99 27.43 C 43.35 27.43 41.24 25.21 41.43 22.53 C 41.589999999999996 20.19 43.74 18.29 46.08 18.29 Z" stroke-miterlimit="10" stroke-width="2" stroke-dasharray=""/></g><g id="_5D28A803-A06A-41AC-B867-F08AF365A344" transform="matrix(1,0,0,1,0,0)"><path fill="#ffffff" stroke="#ffffff" id="_5D28A803-A06A-41AC-B867-F08AF365A344" paint-order="fill stroke markers" d=" M 0 0 M 59.43 36.57 C 62.07 36.57 64.18 38.79 63.99 41.47 C 63.830000000000005 43.81 61.68 45.71 59.34 45.71 L 46.1 45.71 C 43.760000000000005 45.71 41.61 43.800000000000004 41.45 41.47 C 41.260000000000005 38.79 43.370000000000005 36.57 46.010000000000005 36.57 L 59.440000000000005 36.57 Z" stroke-miterlimit="10" stroke-width="2" stroke-dasharray=""/></g><g id="_5D28A803-A06A-41AC-B867-F08AF365A344" transform="matrix(1,0,0,1,0,0)"><path fill="#ffffff" stroke="#ffffff" id="_5D28A803-A06A-41AC-B867-F08AF365A344" paint-order="fill stroke markers" d=" M 0 0 M 0 59.43 C 0 56.9 2.05 54.86 4.57 54.86 L 59.34 54.86 C 61.68000000000001 54.86 63.830000000000005 56.769999999999996 63.99 59.1 C 64.18 61.78 62.07 64 59.43 64 L 4.57 64 C 2.0500000000000003 64 0 61.96 0 59.43 Z" stroke-miterlimit="10" stroke-width="2" stroke-dasharray=""/></g></g></g></g><g id="_BB9E820F-803F-46DD-B675-295D1BB5D31E" transform="matrix(1,0,0,1,1124.5,362)"><g transform="matrix(1,0,0,1,0,0)"><path fill="none" stroke="none"/></g><g transform="matrix(1,0,0,1,0,0)"><path fill="#fff" stroke="#d5d5d5" id="_BB9E820F-803F-46DD-B675-295D1BB5D31E_4CDE177B-275E-46E7-815D-836D5C41AFC8" paint-order="fill stroke markers" d=" M 5 0 L 245 0 L 245 0 A 5 5 0 0 1 250 5 L 250 85 L 250 85 A 5 5 0 0 1 245 90 L 5 90 L 5 90 A 5 5 0 0 1 0 85 L 0 5 L 0 5.000000000000001 A 5 5 0 0 1 4.999999999999999 0 Z" stroke-miterlimit="10" stroke-width="2" stroke-dasharray=""/></g><g transform="matrix(1,0,0,1,90,35)"><text fill="#383B3D" stroke="none" font-family="Open Sans" font-size="12pt" font-style="normal" font-weight="normal" text-decoration="normal" x="44.78125" y="12" text-anchor="middle" dominant-baseline="central">CancelStock</text></g><g><g id="_BB9E820F-803F-46DD-B675-295D1BB5D31E" transform="matrix(1,0,0,1,45,46)"><path fill="#0066CC" stroke="#d5d5d5" id="_BB9E820F-803F-46DD-B675-295D1BB5D31E" paint-order="fill stroke markers" d=" M 25 0 A 25 25 0 1 0 24.99998750000104 0.02499999583334189 Z" stroke-miterlimit="10" stroke-dasharray=""/></g><g transform="matrix(0.35,0,0,0.35,33.8,34.45)"><g id="_BB9E820F-803F-46DD-B675-295D1BB5D31E" transform="matrix(1,0,0,1,0,0)"><path fill="#ffffff" stroke="#ffffff" id="_BB9E820F-803F-46DD-B675-295D1BB5D31E" paint-order="fill stroke markers" d=" M 0 0 M 61.99 20.83 C 62.4 21.9 62.050000000000004 23.119999999999997 61.2 23.9 L 55.790000000000006 28.83 C 55.93000000000001 29.869999999999997 56.00000000000001 30.93 56.00000000000001 32 C 56.00000000000001 33.07 55.92000000000001 34.14 55.790000000000006 35.17 L 61.2 40.09 C 62.050000000000004 40.88 62.400000000000006 42.09 61.99 43.17 C 61.440000000000005 44.660000000000004 60.78 46.09 60.03 47.46 L 59.44 48.47 C 58.61 49.85 57.69 51.15 56.68 52.379999999999995 C 55.93 53.269999999999996 54.72 53.58 53.62 53.23 L 46.66 51.01 C 44.98 52.3 43.019999999999996 53.37 41.16 54.199999999999996 L 39.599999999999994 61.339999999999996 C 39.349999999999994 62.459999999999994 38.48 63.26 37.31999999999999 63.559999999999995 C 35.599999999999994 63.849999999999994 33.81999999999999 63.99999999999999 31.89999999999999 63.99999999999999 C 30.199999999999992 63.99999999999999 28.41999999999999 63.849999999999994 26.699999999999992 63.559999999999995 C 25.549999999999994 63.26 24.679999999999993 62.459999999999994 24.429999999999993 61.339999999999996 L 22.869999999999994 54.199999999999996 C 20.889999999999993 53.37 19.039999999999992 52.3 17.369999999999994 51.01 L 10.409999999999993 53.23 C 9.309999999999993 53.58 8.089999999999993 53.269999999999996 7.3499999999999925 52.379999999999995 C 6.339999999999993 51.13999999999999 5.409999999999993 49.839999999999996 4.589999999999993 48.47 L 3.999999999999993 47.46 C 3.239999999999993 46.1 2.579999999999993 44.660000000000004 2.029999999999993 43.17 C 1.6299999999999932 42.09 1.969999999999993 40.88 2.819999999999993 40.09 L 8.229999999999993 35.17 C 8.089999999999993 34.13 8.019999999999992 33.07 8.019999999999992 32 C 8.019999999999992 30.93 8.089999999999993 29.86 8.229999999999993 28.83 L 2.819999999999993 23.9 C 1.9599999999999933 23.11 1.6199999999999932 21.91 2.029999999999993 20.83 C 2.579999999999993 19.34 3.249999999999993 17.9 3.999999999999993 16.54 L 4.579999999999993 15.53 C 5.409999999999993 14.149999999999999 6.329999999999993 12.86 7.3499999999999925 11.62 C 8.089999999999993 10.729999999999999 9.309999999999992 10.42 10.409999999999993 10.77 L 17.369999999999994 12.99 C 19.039999999999992 11.7 20.889999999999993 10.620000000000001 22.869999999999994 9.81 L 24.429999999999993 2.670000000000001 C 24.679999999999993 1.540000000000001 25.549999999999994 0.6300000000000008 26.699999999999992 0.44000000000000083 C 28.429999999999993 0.15000000000000085 30.199999999999992 8.326672684688674e-16 32.00999999999999 8.326672684688674e-16 C 33.81999999999999 8.326672684688674e-16 35.599999999999994 0.15000000000000083 37.31999999999999 0.44000000000000083 C 38.46999999999999 0.6300000000000008 39.349999999999994 1.530000000000001 39.599999999999994 2.670000000000001 L 41.16 9.81 C 43.019999999999996 10.63 44.98 11.700000000000001 46.66 12.99 L 53.62 10.77 C 54.72 10.42 55.93 10.73 56.68 11.62 C 57.69 12.85 58.62 14.149999999999999 59.44 15.53 L 60.03 16.54 C 60.78 17.9 61.44 19.34 61.99 20.83 L 61.99 20.83 Z M 0 0 M 32 42 C 37.53 42 42 37.53 42 31.89 C 42 26.25 37.53 21.89 32 21.89 C 26.47 21.89 22 26.48 22 31.89 C 22 37.3 26.48 42 32 42 Z" stroke-miterlimit="10" stroke-width="2" stroke-dasharray=""/></g></g></g></g><g id="_FCDC0375-6961-422C-A6DF-00AD08284A57" transform="matrix(1,0,0,1,799.5,539)"><g transform="matrix(1,0,0,1,0,0)"><path fill="none" stroke="none"/></g><g transform="matrix(1,0,0,1,0,0)"><path fill="#fff" stroke="#d5d5d5" id="_FCDC0375-6961-422C-A6DF-00AD08284A57_82234129-88ED-4E17-862B-4F19E16E9AE0" paint-order="fill stroke markers" d=" M 5 0 L 245 0 L 245 0 A 5 5 0 0 1 250 5 L 250 85 L 250 85 A 5 5 0 0 1 245 90 L 5 90 L 5 90 A 5 5 0 0 1 0 85 L 0 5 L 0 5.000000000000001 A 5 5 0 0 1 4.999999999999999 0 Z" stroke-miterlimit="10" stroke-width="2" stroke-dasharray=""/></g><g transform="matrix(1,0,0,1,90,35)"><text fill="#383B3D" stroke="none" font-family="Open Sans" font-size="12pt" font-style="normal" font-weight="normal" text-decoration="normal" x="57.6875" y="12" text-anchor="middle" dominant-baseline="central">CancelPayment</text></g><g><g id="_FCDC0375-6961-422C-A6DF-00AD08284A57" transform="matrix(1,0,0,1,45,46)"><path fill="#0066CC" stroke="#d5d5d5" id="_FCDC0375-6961-422C-A6DF-00AD08284A57" paint-order="fill stroke markers" d=" M 25 0 A 25 25 0 1 0 24.99998750000104 0.02499999583334189 Z" stroke-miterlimit="10" stroke-dasharray=""/></g><g transform="matrix(0.35,0,0,0.35,33.8,34.45)"><g id="_FCDC0375-6961-422C-A6DF-00AD08284A57" transform="matrix(1,0,0,1,0,0)"><path fill="#ffffff" stroke="#ffffff" id="_FCDC0375-6961-422C-A6DF-00AD08284A57" paint-order="fill stroke markers" d=" M 0 0 M 61.99 20.83 C 62.4 21.9 62.050000000000004 23.119999999999997 61.2 23.9 L 55.790000000000006 28.83 C 55.93000000000001 29.869999999999997 56.00000000000001 30.93 56.00000000000001 32 C 56.00000000000001 33.07 55.92000000000001 34.14 55.790000000000006 35.17 L 61.2 40.09 C 62.050000000000004 40.88 62.400000000000006 42.09 61.99 43.17 C 61.440000000000005 44.660000000000004 60.78 46.09 60.03 47.46 L 59.44 48.47 C 58.61 49.85 57.69 51.15 56.68 52.379999999999995 C 55.93 53.269999999999996 54.72 53.58 53.62 53.23 L 46.66 51.01 C 44.98 52.3 43.019999999999996 53.37 41.16 54.199999999999996 L 39.599999999999994 61.339999999999996 C 39.349999999999994 62.459999999999994 38.48 63.26 37.31999999999999 63.559999999999995 C 35.599999999999994 63.849999999999994 33.81999999999999 63.99999999999999 31.89999999999999 63.99999999999999 C 30.199999999999992 63.99999999999999 28.41999999999999 63.849999999999994 26.699999999999992 63.559999999999995 C 25.549999999999994 63.26 24.679999999999993 62.459999999999994 24.429999999999993 61.339999999999996 L 22.869999999999994 54.199999999999996 C 20.889999999999993 53.37 19.039999999999992 52.3 17.369999999999994 51.01 L 10.409999999999993 53.23 C 9.309999999999993 53.58 8.089999999999993 53.269999999999996 7.3499999999999925 52.379999999999995 C 6.339999999999993 51.13999999999999 5.409999999999993 49.839999999999996 4.589999999999993 48.47 L 3.999999999999993 47.46 C 3.239999999999993 46.1 2.579999999999993 44.660000000000004 2.029999999999993 43.17 C 1.6299999999999932 42.09 1.969999999999993 40.88 2.819999999999993 40.09 L 8.229999999999993 35.17 C 8.089999999999993 34.13 8.019999999999992 33.07 8.019999999999992 32 C 8.019999999999992 30.93 8.089999999999993 29.86 8.229999999999993 28.83 L 2.819999999999993 23.9 C 1.9599999999999933 23.11 1.6199999999999932 21.91 2.029999999999993 20.83 C 2.579999999999993 19.34 3.249999999999993 17.9 3.999999999999993 16.54 L 4.579999999999993 15.53 C 5.409999999999993 14.149999999999999 6.329999999999993 12.86 7.3499999999999925 11.62 C 8.089999999999993 10.729999999999999 9.309999999999992 10.42 10.409999999999993 10.77 L 17.369999999999994 12.99 C 19.039999999999992 11.7 20.889999999999993 10.620000000000001 22.869999999999994 9.81 L 24.429999999999993 2.670000000000001 C 24.679999999999993 1.540000000000001 25.549999999999994 0.6300000000000008 26.699999999999992 0.44000000000000083 C 28.429999999999993 0.15000000000000085 30.199999999999992 8.326672684688674e-16 32.00999999999999 8.326672684688674e-16 C 33.81999999999999 8.326672684688674e-16 35.599999999999994 0.15000000000000083 37.31999999999999 0.44000000000000083 C 38.46999999999999 0.6300000000000008 39.349999999999994 1.530000000000001 39.599999999999994 2.670000000000001 L 41.16 9.81 C 43.019999999999996 10.63 44.98 11.700000000000001 46.66 12.99 L 53.62 10.77 C 54.72 10.42 55.93 10.73 56.68 11.62 C 57.69 12.85 58.62 14.149999999999999 59.44 15.53 L 60.03 16.54 C 60.78 17.9 61.44 19.34 61.99 20.83 L 61.99 20.83 Z M 0 0 M 32 42 C 37.53 42 42 37.53 42 31.89 C 42 26.25 37.53 21.89 32 21.89 C 26.47 21.89 22 26.48 22 31.89 C 22 37.3 26.48 42 32 42 Z" stroke-miterlimit="10" stroke-width="2" stroke-dasharray=""/></g></g></g></g><g id="_7F109D15-2463-4D65-81AC-B7B3349C832B" transform="matrix(1,0,0,1,394,771)"><g transform="matrix(1,0,0,1,0,0)"><path fill="none" stroke="none"/></g><g transform="matrix(1,0,0,1,0,0)"><path fill="#fff" stroke="#d5d5d5" id="_7F109D15-2463-4D65-81AC-B7B3349C832B_A29CFD1D-CB66-4C02-9EA8-44507A924414" paint-order="fill stroke markers" d=" M 5 0 L 245 0 L 245 0 A 5 5 0 0 1 250 5 L 250 85 L 250 85 A 5 5 0 0 1 245 90 L 5 90 L 5 90 A 5 5 0 0 1 0 85 L 0 5 L 0 5.000000000000001 A 5 5 0 0 1 4.999999999999999 0 Z" stroke-miterlimit="10" stroke-width="2" stroke-dasharray=""/></g><g transform="matrix(1,0,0,1,90,35)"><text fill="#383B3D" stroke="none" font-family="Open Sans" font-size="12pt" font-style="normal" font-weight="normal" text-decoration="normal" x="57.171875" y="12" text-anchor="middle" dominant-baseline="central">CancelShipping</text></g><g><g id="_7F109D15-2463-4D65-81AC-B7B3349C832B" transform="matrix(1,0,0,1,45,46)"><path fill="#0066CC" stroke="#d5d5d5" id="_7F109D15-2463-4D65-81AC-B7B3349C832B" paint-order="fill stroke markers" d=" M 25 0 A 25 25 0 1 0 24.99998750000104 0.02499999583334189 Z" stroke-miterlimit="10" stroke-dasharray=""/></g><g transform="matrix(0.35,0,0,0.35,33.8,34.45)"><g id="_7F109D15-2463-4D65-81AC-B7B3349C832B" transform="matrix(1,0,0,1,0,0)"><path fill="#ffffff" stroke="#ffffff" id="_7F109D15-2463-4D65-81AC-B7B3349C832B" paint-order="fill stroke markers" d=" M 0 0 M 61.99 20.83 C 62.4 21.9 62.050000000000004 23.119999999999997 61.2 23.9 L 55.790000000000006 28.83 C 55.93000000000001 29.869999999999997 56.00000000000001 30.93 56.00000000000001 32 C 56.00000000000001 33.07 55.92000000000001 34.14 55.790000000000006 35.17 L 61.2 40.09 C 62.050000000000004 40.88 62.400000000000006 42.09 61.99 43.17 C 61.440000000000005 44.660000000000004 60.78 46.09 60.03 47.46 L 59.44 48.47 C 58.61 49.85 57.69 51.15 56.68 52.379999999999995 C 55.93 53.269999999999996 54.72 53.58 53.62 53.23 L 46.66 51.01 C 44.98 52.3 43.019999999999996 53.37 41.16 54.199999999999996 L 39.599999999999994 61.339999999999996 C 39.349999999999994 62.459999999999994 38.48 63.26 37.31999999999999 63.559999999999995 C 35.599999999999994 63.849999999999994 33.81999999999999 63.99999999999999 31.89999999999999 63.99999999999999 C 30.199999999999992 63.99999999999999 28.41999999999999 63.849999999999994 26.699999999999992 63.559999999999995 C 25.549999999999994 63.26 24.679999999999993 62.459999999999994 24.429999999999993 61.339999999999996 L 22.869999999999994 54.199999999999996 C 20.889999999999993 53.37 19.039999999999992 52.3 17.369999999999994 51.01 L 10.409999999999993 53.23 C 9.309999999999993 53.58 8.089999999999993 53.269999999999996 7.3499999999999925 52.379999999999995 C 6.339999999999993 51.13999999999999 5.409999999999993 49.839999999999996 4.589999999999993 48.47 L 3.999999999999993 47.46 C 3.239999999999993 46.1 2.579999999999993 44.660000000000004 2.029999999999993 43.17 C 1.6299999999999932 42.09 1.969999999999993 40.88 2.819999999999993 40.09 L 8.229999999999993 35.17 C 8.089999999999993 34.13 8.019999999999992 33.07 8.019999999999992 32 C 8.019999999999992 30.93 8.089999999999993 29.86 8.229999999999993 28.83 L 2.819999999999993 23.9 C 1.9599999999999933 23.11 1.6199999999999932 21.91 2.029999999999993 20.83 C 2.579999999999993 19.34 3.249999999999993 17.9 3.999999999999993 16.54 L 4.579999999999993 15.53 C 5.409999999999993 14.149999999999999 6.329999999999993 12.86 7.3499999999999925 11.62 C 8.089999999999993 10.729999999999999 9.309999999999992 10.42 10.409999999999993 10.77 L 17.369999999999994 12.99 C 19.039999999999992 11.7 20.889999999999993 10.620000000000001 22.869999999999994 9.81 L 24.429999999999993 2.670000000000001 C 24.679999999999993 1.540000000000001 25.549999999999994 0.6300000000000008 26.699999999999992 0.44000000000000083 C 28.429999999999993 0.15000000000000085 30.199999999999992 8.326672684688674e-16 32.00999999999999 8.326672684688674e-16 C 33.81999999999999 8.326672684688674e-16 35.599999999999994 0.15000000000000083 37.31999999999999 0.44000000000000083 C 38.46999999999999 0.6300000000000008 39.349999999999994 1.530000000000001 39.599999999999994 2.670000000000001 L 41.16 9.81 C 43.019999999999996 10.63 44.98 11.700000000000001 46.66 12.99 L 53.62 10.77 C 54.72 10.42 55.93 10.73 56.68 11.62 C 57.69 12.85 58.62 14.149999999999999 59.44 15.53 L 60.03 16.54 C 60.78 17.9 61.44 19.34 61.99 20.83 L 61.99 20.83 Z M 0 0 M 32 42 C 37.53 42 42 37.53 42 31.89 C 42 26.25 37.53 21.89 32 21.89 C 26.47 21.89 22 26.48 22 31.89 C 22 37.3 26.48 42 32 42 Z" stroke-miterlimit="10" stroke-width="2" stroke-dasharray=""/></g></g></g></g><g id="_F3ED3F52-51A0-4289-99E5-FD03E65533D6" transform="matrix(1,0,0,1,718,948)"><g transform="matrix(1,0,0,1,0,0)"><path fill="none" stroke="none"/></g><g transform="matrix(1,0,0,1,0,0)"><path fill="#fff" stroke="#d5d5d5" id="_F3ED3F52-51A0-4289-99E5-FD03E65533D6_9FEC50CE-ACEC-4BB4-9822-BC0535E7D447" paint-order="fill stroke markers" d=" M 5 0 L 245 0 L 245 0 A 5 5 0 0 1 250 5 L 250 85 L 250 85 A 5 5 0 0 1 245 90 L 5 90 L 5 90 A 5 5 0 0 1 0 85 L 0 5 L 0 5.000000000000001 A 5 5 0 0 1 4.999999999999999 0 Z" stroke-miterlimit="10" stroke-width="2" stroke-dasharray=""/></g><g transform="matrix(1,0,0,1,90,35)"><text fill="#383B3D" stroke="none" font-family="Open Sans" font-size="12pt" font-style="normal" font-weight="normal" text-decoration="normal" x="44.0078125" y="12" text-anchor="middle" dominant-baseline="central">FailedOrder</text></g><g><g id="_F3ED3F52-51A0-4289-99E5-FD03E65533D6" transform="matrix(1,0,0,1,45,46)"><path fill="#0066CC" stroke="#d5d5d5" id="_F3ED3F52-51A0-4289-99E5-FD03E65533D6" paint-order="fill stroke markers" d=" M 25 0 A 25 25 0 1 0 24.99998750000104 0.02499999583334189 Z" stroke-miterlimit="10" stroke-dasharray=""/></g><g transform="matrix(0.35,0,0,0.35,33.8,34.45)"><g id="_F3ED3F52-51A0-4289-99E5-FD03E65533D6" transform="matrix(1,0,0,1,0,0)"><path fill="#ffffff" stroke="#ffffff" id="_F3ED3F52-51A0-4289-99E5-FD03E65533D6" paint-order="fill stroke markers" d=" M 0 0 M 61.99 20.83 C 62.4 21.9 62.050000000000004 23.119999999999997 61.2 23.9 L 55.790000000000006 28.83 C 55.93000000000001 29.869999999999997 56.00000000000001 30.93 56.00000000000001 32 C 56.00000000000001 33.07 55.92000000000001 34.14 55.790000000000006 35.17 L 61.2 40.09 C 62.050000000000004 40.88 62.400000000000006 42.09 61.99 43.17 C 61.440000000000005 44.660000000000004 60.78 46.09 60.03 47.46 L 59.44 48.47 C 58.61 49.85 57.69 51.15 56.68 52.379999999999995 C 55.93 53.269999999999996 54.72 53.58 53.62 53.23 L 46.66 51.01 C 44.98 52.3 43.019999999999996 53.37 41.16 54.199999999999996 L 39.599999999999994 61.339999999999996 C 39.349999999999994 62.459999999999994 38.48 63.26 37.31999999999999 63.559999999999995 C 35.599999999999994 63.849999999999994 33.81999999999999 63.99999999999999 31.89999999999999 63.99999999999999 C 30.199999999999992 63.99999999999999 28.41999999999999 63.849999999999994 26.699999999999992 63.559999999999995 C 25.549999999999994 63.26 24.679999999999993 62.459999999999994 24.429999999999993 61.339999999999996 L 22.869999999999994 54.199999999999996 C 20.889999999999993 53.37 19.039999999999992 52.3 17.369999999999994 51.01 L 10.409999999999993 53.23 C 9.309999999999993 53.58 8.089999999999993 53.269999999999996 7.3499999999999925 52.379999999999995 C 6.339999999999993 51.13999999999999 5.409999999999993 49.839999999999996 4.589999999999993 48.47 L 3.999999999999993 47.46 C 3.239999999999993 46.1 2.579999999999993 44.660000000000004 2.029999999999993 43.17 C 1.6299999999999932 42.09 1.969999999999993 40.88 2.819999999999993 40.09 L 8.229999999999993 35.17 C 8.089999999999993 34.13 8.019999999999992 33.07 8.019999999999992 32 C 8.019999999999992 30.93 8.089999999999993 29.86 8.229999999999993 28.83 L 2.819999999999993 23.9 C 1.9599999999999933 23.11 1.6199999999999932 21.91 2.029999999999993 20.83 C 2.579999999999993 19.34 3.249999999999993 17.9 3.999999999999993 16.54 L 4.579999999999993 15.53 C 5.409999999999993 14.149999999999999 6.329999999999993 12.86 7.3499999999999925 11.62 C 8.089999999999993 10.729999999999999 9.309999999999992 10.42 10.409999999999993 10.77 L 17.369999999999994 12.99 C 19.039999999999992 11.7 20.889999999999993 10.620000000000001 22.869999999999994 9.81 L 24.429999999999993 2.670000000000001 C 24.679999999999993 1.540000000000001 25.549999999999994 0.6300000000000008 26.699999999999992 0.44000000000000083 C 28.429999999999993 0.15000000000000085 30.199999999999992 8.326672684688674e-16 32.00999999999999 8.326672684688674e-16 C 33.81999999999999 8.326672684688674e-16 35.599999999999994 0.15000000000000083 37.31999999999999 0.44000000000000083 C 38.46999999999999 0.6300000000000008 39.349999999999994 1.530000000000001 39.599999999999994 2.670000000000001 L 41.16 9.81 C 43.019999999999996 10.63 44.98 11.700000000000001 46.66 12.99 L 53.62 10.77 C 54.72 10.42 55.93 10.73 56.68 11.62 C 57.69 12.85 58.62 14.149999999999999 59.44 15.53 L 60.03 16.54 C 60.78 17.9 61.44 19.34 61.99 20.83 L 61.99 20.83 Z M 0 0 M 32 42 C 37.53 42 42 37.53 42 31.89 C 42 26.25 37.53 21.89 32 21.89 C 26.47 21.89 22 26.48 22 31.89 C 22 37.3 26.48 42 32 42 Z" stroke-miterlimit="10" stroke-width="2" stroke-dasharray=""/></g></g></g></g><g id="_743A3C04-8286-41A2-B122-24C0B3A6BF79" transform="matrix(1,0,0,1,70,771)"><g transform="matrix(1,0,0,1,0,0)"><path fill="none" stroke="none"/></g><g transform="matrix(1,0,0,1,0,0)"><path fill="#fff" stroke="#d5d5d5" id="_743A3C04-8286-41A2-B122-24C0B3A6BF79_AE51B11A-AB58-489D-A597-969D143B6B1C" paint-order="fill stroke markers" d=" M 5 0 L 245 0 L 245 0 A 5 5 0 0 1 250 5 L 250 85 L 250 85 A 5 5 0 0 1 245 90 L 5 90 L 5 90 A 5 5 0 0 1 0 85 L 0 5 L 0 5.000000000000001 A 5 5 0 0 1 4.999999999999999 0 Z" stroke-miterlimit="10" stroke-width="2" stroke-dasharray=""/></g><g transform="matrix(1,0,0,1,90,35)"><text fill="#383B3D" stroke="none" font-family="Open Sans" font-size="12pt" font-style="normal" font-weight="normal" text-decoration="normal" x="58.0390625" y="12" text-anchor="middle" dominant-baseline="central">CompleteOrder</text></g><g><g id="_743A3C04-8286-41A2-B122-24C0B3A6BF79" transform="matrix(1,0,0,1,45,46)"><path fill="#0066CC" stroke="#d5d5d5" id="_743A3C04-8286-41A2-B122-24C0B3A6BF79" paint-order="fill stroke markers" d=" M 25 0 A 25 25 0 1 0 24.99998750000104 0.02499999583334189 Z" stroke-miterlimit="10" stroke-dasharray=""/></g><g transform="matrix(0.35,0,0,0.35,33.8,34.45)"><g id="_743A3C04-8286-41A2-B122-24C0B3A6BF79" transform="matrix(1,0,0,1,0,0)"><path fill="#ffffff" stroke="#ffffff" id="_743A3C04-8286-41A2-B122-24C0B3A6BF79" paint-order="fill stroke markers" d=" M 0 0 M 61.99 20.83 C 62.4 21.9 62.050000000000004 23.119999999999997 61.2 23.9 L 55.790000000000006 28.83 C 55.93000000000001 29.869999999999997 56.00000000000001 30.93 56.00000000000001 32 C 56.00000000000001 33.07 55.92000000000001 34.14 55.790000000000006 35.17 L 61.2 40.09 C 62.050000000000004 40.88 62.400000000000006 42.09 61.99 43.17 C 61.440000000000005 44.660000000000004 60.78 46.09 60.03 47.46 L 59.44 48.47 C 58.61 49.85 57.69 51.15 56.68 52.379999999999995 C 55.93 53.269999999999996 54.72 53.58 53.62 53.23 L 46.66 51.01 C 44.98 52.3 43.019999999999996 53.37 41.16 54.199999999999996 L 39.599999999999994 61.339999999999996 C 39.349999999999994 62.459999999999994 38.48 63.26 37.31999999999999 63.559999999999995 C 35.599999999999994 63.849999999999994 33.81999999999999 63.99999999999999 31.89999999999999 63.99999999999999 C 30.199999999999992 63.99999999999999 28.41999999999999 63.849999999999994 26.699999999999992 63.559999999999995 C 25.549999999999994 63.26 24.679999999999993 62.459999999999994 24.429999999999993 61.339999999999996 L 22.869999999999994 54.199999999999996 C 20.889999999999993 53.37 19.039999999999992 52.3 17.369999999999994 51.01 L 10.409999999999993 53.23 C 9.309999999999993 53.58 8.089999999999993 53.269999999999996 7.3499999999999925 52.379999999999995 C 6.339999999999993 51.13999999999999 5.409999999999993 49.839999999999996 4.589999999999993 48.47 L 3.999999999999993 47.46 C 3.239999999999993 46.1 2.579999999999993 44.660000000000004 2.029999999999993 43.17 C 1.6299999999999932 42.09 1.969999999999993 40.88 2.819999999999993 40.09 L 8.229999999999993 35.17 C 8.089999999999993 34.13 8.019999999999992 33.07 8.019999999999992 32 C 8.019999999999992 30.93 8.089999999999993 29.86 8.229999999999993 28.83 L 2.819999999999993 23.9 C 1.9599999999999933 23.11 1.6199999999999932 21.91 2.029999999999993 20.83 C 2.579999999999993 19.34 3.249999999999993 17.9 3.999999999999993 16.54 L 4.579999999999993 15.53 C 5.409999999999993 14.149999999999999 6.329999999999993 12.86 7.3499999999999925 11.62 C 8.089999999999993 10.729999999999999 9.309999999999992 10.42 10.409999999999993 10.77 L 17.369999999999994 12.99 C 19.039999999999992 11.7 20.889999999999993 10.620000000000001 22.869999999999994 9.81 L 24.429999999999993 2.670000000000001 C 24.679999999999993 1.540000000000001 25.549999999999994 0.6300000000000008 26.699999999999992 0.44000000000000083 C 28.429999999999993 0.15000000000000085 30.199999999999992 8.326672684688674e-16 32.00999999999999 8.326672684688674e-16 C 33.81999999999999 8.326672684688674e-16 35.599999999999994 0.15000000000000083 37.31999999999999 0.44000000000000083 C 38.46999999999999 0.6300000000000008 39.349999999999994 1.530000000000001 39.599999999999994 2.670000000000001 L 41.16 9.81 C 43.019999999999996 10.63 44.98 11.700000000000001 46.66 12.99 L 53.62 10.77 C 54.72 10.42 55.93 10.73 56.68 11.62 C 57.69 12.85 58.62 14.149999999999999 59.44 15.53 L 60.03 16.54 C 60.78 17.9 61.44 19.34 61.99 20.83 L 61.99 20.83 Z M 0 0 M 32 42 C 37.53 42 42 37.53 42 31.89 C 42 26.25 37.53 21.89 32 21.89 C 26.47 21.89 22 26.48 22 31.89 C 22 37.3 26.48 42 32 42 Z" stroke-miterlimit="10" stroke-width="2" stroke-dasharray=""/></g></g></g></g><g id="startEdge"><g><path fill="none" stroke="#757575" paint-order="fill stroke markers" d=" M 1056.25 100 L 1056.25 170" stroke-miterlimit="10" stroke-width="1.5" stroke-dasharray=""/></g><g transform="matrix(1,0,0,1,1056.25,100)"/><g transform="matrix(-1,1.2246467991473532e-16,-1.2246467991473532e-16,-1,1061.25,185)"><path fill="#757575" stroke="#757575" paint-order="fill stroke markers" d=" M 10 15 L 0 15 L 5 0 Z" stroke-miterlimit="10" stroke-width="1.5" stroke-dasharray=""/></g><g transform="matrix(1,0,0,1,1066.25,142.5)"/></g><g id="_87D9BE27-2CDD-4782-BA39-E2DCB067610F"><g><path fill="none" stroke="#757575" paint-order="fill stroke markers" d=" M 1022.5 275 L 994.75 312 L 733.25 312 L 732.5130879369439 347.003322995167" stroke-miterlimit="10" stroke-width="1.5" stroke-dasharray=""/></g><g transform="matrix(1,0,0,1,1022.5,275)"/><g transform="matrix(-0.9997784669888633,-0.021047967726084027,0.021047967726084027,-0.9997784669888633,737.196260755997,362.10523983863044)"><path fill="#757575" stroke="#757575" paint-order="fill stroke markers" d=" M 10 15 L 0 15 L 5 0 Z" stroke-miterlimit="10" stroke-width="1.5" stroke-dasharray=""/></g><g transform="matrix(1,0,0,1,1002.75,287.5)"/></g><g id="_7D02ACF0-E9ED-4EDF-8452-1B4556D0F71B"><g><path fill="none" stroke="#757575" paint-order="fill stroke markers" d=" M 697.5 452 L 669.75 489 L 440.5 489 L 439.7630879369438 524.0033229951671" stroke-miterlimit="10" stroke-width="1.5" stroke-dasharray=""/></g><g transform="matrix(1,0,0,1,697.5,452)"/><g transform="matrix(-0.9997784669888634,-0.021047967726080034,0.021047967726080034,-0.9997784669888634,444.44626075599695,539.1052398386304)"><path fill="#757575" stroke="#757575" paint-order="fill stroke markers" d=" M 10 15 L 0 15 L 5 0 Z" stroke-miterlimit="10" stroke-width="1.5" stroke-dasharray=""/></g><g transform="matrix(1,0,0,1,677.75,464.5)"/></g><g id="_462FE2EB-0BE5-4DBA-A754-8122B516AA9F"><g><path fill="none" stroke="#757575" paint-order="fill stroke markers" d=" M 404.75 629 L 377 666 L 197 666 L 195.79998222459224 756.0013331555818" stroke-miterlimit="10" stroke-width="1.5" stroke-dasharray=""/></g><g transform="matrix(1,0,0,1,404.75,629)"/><g transform="matrix(-0.9999111229612074,-0.01333214830614987,0.01333214830614987,-0.9999111229612074,200.59955561480604,771.0666607415308)"><path fill="#757575" stroke="#757575" paint-order="fill stroke markers" d=" M 10 15 L 0 15 L 5 0 Z" stroke-miterlimit="10" stroke-width="1.5" stroke-dasharray=""/></g><g transform="matrix(1,0,0,1,385,641.5)"/></g><g id="_662535D6-4D13-4118-B6FB-FA7A687BEFCC"><g><path fill="none" stroke="#757575" paint-order="fill stroke markers" d=" M 195.34749034749035 861 L 197 1075 L 432.33333333333337 1075 L 435.53535728416466 1110.0621622616031" stroke-miterlimit="10" stroke-width="1.5" stroke-dasharray=""/></g><g transform="matrix(1,0,0,1,195.34749034749035,861)"/><g transform="matrix(-0.9958558492264507,0.09094573965538318,-0.09094573965538318,-0.9958558492264507,441.87882262512767,1124.545271301723)"><path fill="#757575" stroke="#757575" paint-order="fill stroke markers" d=" M 10 15 L 0 15 L 5 0 Z" stroke-miterlimit="10" stroke-width="1.5" stroke-dasharray=""/></g><g transform="matrix(1,0,0,1,205.4012692897672,967.9227822249705)"/></g><g id="_10B10F4F-49BD-418F-A00C-C65A6DB715BF"><g><path fill="none" stroke="#f0ab00" paint-order="fill stroke markers" d=" M 439.0921052631579 629 L 440.5 736 L 521 736 L 520.499882867403 756.0046853038782" stroke-miterlimit="10" stroke-width="1.5" stroke-dasharray="4,6"/></g><g transform="matrix(1,0,0,1,439.0921052631579,629)"/><g transform="matrix(-0.9996876464081228,-0.024992191160201332,0.024992191160201332,-0.9996876464081228,525.1234382320406,771.124960955801)"><path fill="#f0ab00" stroke="#f0ab00" paint-order="fill stroke markers" d=" M 10 15 L 0 15 L 5 0 Z" stroke-miterlimit="10" stroke-width="1.5" stroke-dasharray=""/></g><g transform="matrix(1,0,0,1,449.0912397245749,682.3684324412972)"/></g><g id="_8DEBDE3B-C1E8-48F4-A5C8-E786268A779E"><g><path fill="none" stroke="#c9190b" paint-order="fill stroke markers" d=" M 463.6923076923077 629 L 504 701 L 781.5 701 L 811.861038797636 757.7726741744412" stroke-miterlimit="10" stroke-width="1.5" stroke-dasharray="8,8"/></g><g transform="matrix(1,0,0,1,463.6923076923077,629)"/><g transform="matrix(-0.8818217217039197,0.471582920737313,-0.471582920737313,-0.8818217217039197,823.3438912172152,768.6420853963134)"><path fill="#c9190b" stroke="#c9190b" paint-order="fill stroke markers" d=" M 10 15 L 0 15 L 5 0 Z" stroke-miterlimit="10" stroke-width="1.5" stroke-dasharray=""/></g><g transform="matrix(1,0,0,1,472.41800364903366,660.1151018361919)"/></g><g id="_D8B94F35-C4CA-4336-AD07-D20C813169F1"><g><path fill="none" stroke="#757575" paint-order="fill stroke markers" d=" M 843 861 L 843 933" stroke-miterlimit="10" stroke-width="1.5" stroke-dasharray=""/></g><g transform="matrix(1,0,0,1,843,861)"/><g transform="matrix(-1,1.2246467991473532e-16,-1.2246467991473532e-16,-1,848,948)"><path fill="#757575" stroke="#757575" paint-order="fill stroke markers" d=" M 10 15 L 0 15 L 5 0 Z" stroke-miterlimit="10" stroke-width="1.5" stroke-dasharray=""/></g><g transform="matrix(1,0,0,1,853,904.5)"/></g><g id="_83709F37-F794-4912-A877-DA3FAADD095B"><g><path fill="none" stroke="#757575" paint-order="fill stroke markers" d=" M 844.0975609756098 1038 L 845 1075 L 448.66666666666663 1075 L 444.0147742266365 1110.1298084264347" stroke-miterlimit="10" stroke-width="1.5" stroke-dasharray=""/></g><g transform="matrix(1,0,0,1,844.0975609756098,1038)"/><g transform="matrix(-0.9913461049043509,-0.13127414174532523,0.13127414174532523,-0.9913461049043509,447.00239262497837,1125.6563707087266)"><path fill="#757575" stroke="#757575" paint-order="fill stroke markers" d=" M 10 15 L 0 15 L 5 0 Z" stroke-miterlimit="10" stroke-width="1.5" stroke-dasharray=""/></g><g transform="matrix(1,0,0,1,854.0945878820403,1056.256170075453)"/></g><g id="_968BFD7D-FF54-4D51-8EE5-C98FD03436CF"><g><path fill="none" stroke="#f0ab00" paint-order="fill stroke markers" d=" M 767.1951219512196 452 L 796.75 489 L 926.5 489 L 925.7630879369439 524.0033229951671" stroke-miterlimit="10" stroke-width="1.5" stroke-dasharray="4,6"/></g><g transform="matrix(1,0,0,1,767.1951219512196,452)"/><g transform="matrix(-0.9997784669888633,-0.021047967726084027,0.021047967726084027,-0.9997784669888633,930.446260755997,539.1052398386304)"><path fill="#f0ab00" stroke="#f0ab00" paint-order="fill stroke markers" d=" M 10 15 L 0 15 L 5 0 Z" stroke-miterlimit="10" stroke-width="1.5" stroke-dasharray=""/></g><g transform="matrix(1,0,0,1,775.0084559115202,464.25886128780866)"/></g><g id="_FC249345-5B96-4695-97B5-6F43FF89443C"><g><path fill="none" stroke="#c9190b" paint-order="fill stroke markers" d=" M 732.3475609756098 452 L 733.25 489 L 764.5 489 L 764.5 666 L 845 666 L 843.7999822245922 756.0013331555818" stroke-miterlimit="10" stroke-width="1.5" stroke-dasharray="8,8"/></g><g transform="matrix(1,0,0,1,732.3475609756098,452)"/><g transform="matrix(-0.9999111229612074,-0.013332148306145873,0.013332148306145873,-0.9999111229612074,848.599555614806,771.0666607415308)"><path fill="#c9190b" stroke="#c9190b" paint-order="fill stroke markers" d=" M 10 15 L 0 15 L 5 0 Z" stroke-miterlimit="10" stroke-width="1.5" stroke-dasharray=""/></g><g transform="matrix(1,0,0,1,742.3445878820403,470.2561700754529)"/></g><g id="_69A49468-5340-46B8-85C0-9956D0B69606"><g><path fill="none" stroke="#f0ab00" paint-order="fill stroke markers" d=" M 1092.1951219512196 275 L 1121.75 312 L 1251.5 312 L 1250.763087936944 347.003322995167" stroke-miterlimit="10" stroke-width="1.5" stroke-dasharray="4,6"/></g><g transform="matrix(1,0,0,1,1092.1951219512196,275)"/><g transform="matrix(-0.9997784669888633,-0.021047967726084027,0.021047967726084027,-0.9997784669888633,1255.446260755997,362.10523983863044)"><path fill="#f0ab00" stroke="#f0ab00" paint-order="fill stroke markers" d=" M 10 15 L 0 15 L 5 0 Z" stroke-miterlimit="10" stroke-width="1.5" stroke-dasharray=""/></g><g transform="matrix(1,0,0,1,1100.0084559115198,287.25886128780866)"/></g><g id="_70ACC052-ACEC-4D18-BD2A-CCE1BEA0F312"><g><path fill="none" stroke="#c9190b" paint-order="fill stroke markers" d=" M 1057.3475609756097 275 L 1058.25 312 L 1089.5 312 L 1089.5 666 L 908.5 666 L 868.6526659561875 757.2534367415551" stroke-miterlimit="10" stroke-width="1.5" stroke-dasharray="8,8"/></g><g transform="matrix(1,0,0,1,1057.3475609756097,275)"/><g transform="matrix(-0.9164375505629923,-0.4001777304125044,0.4001777304125044,-0.9164375505629923,867.232187752815,773.0008886520625)"><path fill="#c9190b" stroke="#c9190b" paint-order="fill stroke markers" d=" M 10 15 L 0 15 L 5 0 Z" stroke-miterlimit="10" stroke-width="1.5" stroke-dasharray=""/></g><g transform="matrix(1,0,0,1,1067.34458788204,293.25617007545287)"/></g></g></g></svg>