<?xml version="1.0" encoding="UTF-8" standalone="no"?><svg xmlns="http://www.w3.org/2000/svg" xmlns:xlink="http://www.w3.org/1999/xlink" contentScriptType="application/ecmascript" contentStyleType="text/css" height="419px" preserveAspectRatio="none" style="width:624px;height:419px;" version="1.1" viewBox="0 0 624 419" width="624px" zoomAndPan="magnify"><defs><filter height="300%" id="fkqj5k9" width="300%" x="-1" y="-1"><feGaussianBlur result="blurOut" stdDeviation="2.0"/><feColorMatrix in="blurOut" result="blurOut2" type="matrix" values="0 0 0 0 0 0 0 0 0 0 0 0 0 0 0 0 0 0 .4 0"/><feOffset dx="4.0" dy="4.0" in="blurOut2" result="blurOut3"/><feBlend in="SourceGraphic" in2="blurOut3" mode="normal"/></filter></defs><g><rect fill="#FFFFFF" filter="url(#fkqj5k9)" height="330.2969" rx="12.5" ry="12.5" style="stroke: #000000; stroke-width: 1.5;" width="323" x="148.5" y="8"/><rect fill="#FFFFFF" height="298" rx="12.5" ry="12.5" style="stroke: #FFFFFF; stroke-width: 1.0;" width="317" x="151.5" y="37.2969"/><line style="stroke: #000000; stroke-width: 1.5;" x1="148.5" x2="471.5" y1="34.2969" y2="34.2969"/><text fill="#000000" font-family="sans-serif" font-size="14" lengthAdjust="spacingAndGlyphs" textLength="303" x="158.5" y="25.9951">Fahrenheit to Celsius Conversion Flow vv1.0</text><rect fill="#F8F8FF" filter="url(#fkqj5k9)" height="50.2656" rx="12.5" ry="12.5" style="stroke: #1E5F74; stroke-width: 1.5;" width="129" x="181" y="103.2969"/><line style="stroke: #1E5F74; stroke-width: 1.5;" x1="181" x2="310" y1="129.5938" y2="129.5938"/><text fill="#000000" font-family="sans-serif" font-size="14" lengthAdjust="spacingAndGlyphs" textLength="94" x="198.5" y="121.292">SetConstants</text><text fill="#000000" font-family="sans-serif" font-size="12" lengthAdjust="spacingAndGlyphs" textLength="109" x="186" y="145.7324">Type: Inject State</text><rect fill="#F8F8FF" filter="url(#fkqj5k9)" height="78.2031" rx="12.5" ry="12.5" style="stroke: #BADA55; stroke-width: 1.5;" width="172" x="159.5" y="189.2969"/><line style="stroke: #BADA55; stroke-width: 1.5;" x1="159.5" x2="331.5" y1="215.5938" y2="215.5938"/><text fill="#000000" font-family="sans-serif" font-size="14" lengthAdjust="spacingAndGlyphs" textLength="89" x="201" y="207.292">Computation</text><text fill="#000000" font-family="sans-serif" font-size="12" lengthAdjust="spacingAndGlyphs" textLength="137" x="164.5" y="231.7324">Type: Operation State</text><text fill="#000000" font-family="sans-serif" font-size="12" lengthAdjust="spacingAndGlyphs" textLength="152" x="164.5" y="245.7012">Action mode: sequential</text><text fill="#000000" font-family="sans-serif" font-size="12" lengthAdjust="spacingAndGlyphs" textLength="114" x="164.5" y="259.6699">Num. of actions: 2</text><ellipse cx="245.5" cy="57.2969" fill="#008000" filter="url(#fkqj5k9)" rx="10" ry="10" style="stroke: none; stroke-width: 1.0;"/><ellipse cx="245.5" cy="313.2969" fill="none" filter="url(#fkqj5k9)" rx="10" ry="10" style="stroke: #FFA500; stroke-width: 1.0;"/><ellipse cx="246" cy="313.7969" fill="#FFA500" rx="6" ry="6" style="stroke: none; stroke-width: 1.0;"/><path d="M245.5,67.3169 C245.5,75.1769 245.5,87.0169 245.5,98.1069 " fill="none" style="stroke: #000000; stroke-width: 1.0;"/><polygon fill="#000000" points="245.5,103.1269,249.5,94.1269,245.5,98.1269,241.5,94.1269,245.5,103.1269" style="stroke: #000000; stroke-width: 1.0;"/><path d="M245.5,153.5169 C245.5,162.7769 245.5,173.6269 245.5,184.1269 " fill="none" style="stroke: #000000; stroke-width: 1.0;"/><polygon fill="#000000" points="245.5,189.2369,249.5,180.2369,245.5,184.2369,241.5,180.2369,245.5,189.2369" style="stroke: #000000; stroke-width: 1.0;"/><path d="M245.5,267.3969 C245.5,278.1969 245.5,289.3069 245.5,297.7769 " fill="none" style="stroke: #000000; stroke-width: 1.0;"/><polygon fill="#000000" points="245.5,303.1869,249.5,294.1869,245.5,298.1869,241.5,294.1869,245.5,303.1869" style="stroke: #000000; stroke-width: 1.0;"/><rect fill="#FFFFFF" height="62.8906" rx="5" ry="5" style="stroke: #FFFFFF; stroke-width: 1.0;" width="615" x="8" y="356"/><text fill="#000000" font-family="sans-serif" font-size="14" lengthAdjust="spacingAndGlyphs" textLength="216" x="14" y="373.9951">State Types and Border Colors:</text><text fill="#000000" font-family="sans-serif" font-size="14" font-weight="bold" lengthAdjust="spacingAndGlyphs" textLength="44" x="19" y="392.292">Event</text><text fill="#000000" font-family="sans-serif" font-size="14" font-weight="bold" lengthAdjust="spacingAndGlyphs" textLength="78" x="73" y="392.292">Operation</text><text fill="#000000" font-family="sans-serif" font-size="14" font-weight="bold" lengthAdjust="spacingAndGlyphs" textLength="53" x="161" y="392.292">Switch</text><text fill="#000000" font-family="sans-serif" font-size="14" font-weight="bold" lengthAdjust="spacingAndGlyphs" textLength="43" x="224" y="392.292">Delay</text><text fill="#000000" font-family="sans-serif" font-size="14" font-weight="bold" lengthAdjust="spacingAndGlyphs" textLength="57" x="277" y="392.292">Parallel</text><text fill="#000000" font-family="sans-serif" font-size="14" font-weight="bold" lengthAdjust="spacingAndGlyphs" textLength="67" x="344" y="392.292">SubFlow</text><text fill="#000000" font-family="sans-serif" font-size="14" font-weight="bold" lengthAdjust="spacingAndGlyphs" textLength="43" x="421" y="392.292">Inject</text><text fill="#000000" font-family="sans-serif" font-size="14" font-weight="bold" lengthAdjust="spacingAndGlyphs" textLength="63" x="474" y="392.292">ForEach</text><text fill="#000000" font-family="sans-serif" font-size="14" font-weight="bold" lengthAdjust="spacingAndGlyphs" textLength="65" x="547" y="392.292">CallBack</text><rect fill="#7FE5F0" height="16.2969" style="stroke: none; stroke-width: 1.0;" width="54" x="14" y="395.5938"/><text fill="#000000" font-family="sans-serif" font-size="14" lengthAdjust="spacingAndGlyphs" textLength="0" x="18" y="408.5889"/><rect fill="#BADA55" height="16.2969" style="stroke: none; stroke-width: 1.0;" width="88" x="68" y="395.5938"/><text fill="#000000" font-family="sans-serif" font-size="14" lengthAdjust="spacingAndGlyphs" textLength="0" x="72" y="408.5889"/><rect fill="#92A0F2" height="16.2969" style="stroke: none; stroke-width: 1.0;" width="63" x="156" y="395.5938"/><text fill="#000000" font-family="sans-serif" font-size="14" lengthAdjust="spacingAndGlyphs" textLength="0" x="160" y="408.5889"/><rect fill="#B83B5E" height="16.2969" style="stroke: none; stroke-width: 1.0;" width="53" x="219" y="395.5938"/><text fill="#000000" font-family="sans-serif" font-size="14" lengthAdjust="spacingAndGlyphs" textLength="0" x="223" y="408.5889"/><rect fill="#6A2C70" height="16.2969" style="stroke: none; stroke-width: 1.0;" width="67" x="272" y="395.5938"/><text fill="#000000" font-family="sans-serif" font-size="14" lengthAdjust="spacingAndGlyphs" textLength="0" x="276" y="408.5889"/><rect fill="#87753C" height="16.2969" style="stroke: none; stroke-width: 1.0;" width="77" x="339" y="395.5938"/><text fill="#000000" font-family="sans-serif" font-size="14" lengthAdjust="spacingAndGlyphs" textLength="0" x="343" y="408.5889"/><rect fill="#1E5F74" height="16.2969" style="stroke: none; stroke-width: 1.0;" width="53" x="416" y="395.5938"/><text fill="#000000" font-family="sans-serif" font-size="14" lengthAdjust="spacingAndGlyphs" textLength="0" x="420" y="408.5889"/><rect fill="#931A25" height="16.2969" style="stroke: none; stroke-width: 1.0;" width="73" x="469" y="395.5938"/><text fill="#000000" font-family="sans-serif" font-size="14" lengthAdjust="spacingAndGlyphs" textLength="0" x="473" y="408.5889"/><rect fill="#FFCB8E" height="16.2969" style="stroke: none; stroke-width: 1.0;" width="75" x="542" y="395.5938"/><text fill="#000000" font-family="sans-serif" font-size="14" lengthAdjust="spacingAndGlyphs" textLength="0" x="546" y="408.5889"/><line style="stroke: #000000; stroke-width: 1.0;" x1="14" x2="617" y1="379.2969" y2="379.2969"/><line style="stroke: #000000; stroke-width: 1.0;" x1="14" x2="617" y1="395.5938" y2="395.5938"/><line style="stroke: #000000; stroke-width: 1.0;" x1="14" x2="617" y1="411.8906" y2="411.8906"/><line style="stroke: #000000; stroke-width: 1.0;" x1="14" x2="14" y1="379.2969" y2="411.8906"/><line style="stroke: #000000; stroke-width: 1.0;" x1="68" x2="68" y1="379.2969" y2="411.8906"/><line style="stroke: #000000; stroke-width: 1.0;" x1="156" x2="156" y1="379.2969" y2="411.8906"/><line style="stroke: #000000; stroke-width: 1.0;" x1="219" x2="219" y1="379.2969" y2="411.8906"/><line style="stroke: #000000; stroke-width: 1.0;" x1="272" x2="272" y1="379.2969" y2="411.8906"/><line style="stroke: #000000; stroke-width: 1.0;" x1="339" x2="339" y1="379.2969" y2="411.8906"/><line style="stroke: #000000; stroke-width: 1.0;" x1="416" x2="416" y1="379.2969" y2="411.8906"/><line style="stroke: #000000; stroke-width: 1.0;" x1="469" x2="469" y1="379.2969" y2="411.8906"/><line style="stroke: #000000; stroke-width: 1.0;" x1="542" x2="542" y1="379.2969" y2="411.8906"/><line style="stroke: #000000; stroke-width: 1.0;" x1="617" x2="617" y1="379.2969" y2="411.8906"/></g></svg>